<svg width="1069" height="212" viewBox="0 0 1069 212" fill="none" xmlns="http://www.w3.org/2000/svg">
<circle cx="156" cy="171" r="29.5" stroke="#07ACA3" stroke-width="15"/>
<circle cx="156" cy="53" r="29.5" stroke="#FB0524" stroke-width="15"/>
<circle cx="37" cy="171" r="29.5" stroke="#046CBB" stroke-width="15"/>
<circle cx="37" cy="53" r="29.5" stroke="#FBC405" stroke-width="15"/>
<rect x="59" y="75" width="74" height="74" rx="21" fill="#5E5E5E"/>
<rect x="83.397" y="112.125" width="84" height="18" transform="rotate(-135 83.397 112.125)" fill="#5E5E5E"/>
<rect x="155.397" y="184.125" width="84" height="18" transform="rotate(-135 155.397 184.125)" fill="#5E5E5E"/>
<rect x="96" y="99.397" width="84" height="18" transform="rotate(-45 96 99.397)" fill="#5E5E5E"/>
<rect x="96.1249" y="124.728" width="84" height="18" transform="rotate(135 96.1249 124.728)" fill="#5E5E5E"/>
<circle cx="37" cy="53" r="15" fill="#5E5E5E"/>
<circle cx="37" cy="171" r="15" fill="#5E5E5E"/>
<circle cx="156" cy="53" r="15" fill="#5E5E5E"/>
<circle cx="156" cy="171" r="15" fill="#5E5E5E"/>
<path d="M226.88 209C222.587 209 218.947 207.693 215.96 205.08C212.973 202.28 211.48 198.92 211.48 195V27C211.48 22.8933 212.88 19.5333 215.68 16.92C218.667 14.3067 222.4 13 226.88 13H291.28C307.333 13 321.52 16.08 333.84 22.24C346.347 28.2133 355.96 36.7067 362.68 47.72C369.587 58.7333 373.04 71.3333 373.04 85.52V135.92C373.04 150.107 369.587 162.8 362.68 174C355.773 185.013 346.067 193.6 333.56 199.76C321.24 205.92 307.147 209 291.28 209H226.88ZM288.48 182.96C305.84 182.96 319.28 178.947 328.8 170.92C338.32 162.707 343.08 151.133 343.08 136.2V84.96C343.08 70.4 338.32 59.1067 328.8 51.08C319.28 43.0533 305.84 39.04 288.48 39.04H241.72V182.96H288.48ZM412.314 34.28C412.314 26.6267 414.928 20.7467 420.154 16.64C425.381 12.5333 432.848 10.48 442.554 10.48V187.72C442.554 195.373 439.941 201.253 434.714 205.36C429.488 209.467 422.021 211.52 412.314 211.52V34.28ZM485.191 34.28C485.191 26.8133 487.898 21.0267 493.311 16.92C498.724 12.6267 506.098 10.48 515.431 10.48L580.111 168.12L574.511 182.68L576.751 183.8L645.351 10.48C654.684 10.48 662.058 12.6267 667.471 16.92C672.884 21.2133 675.591 27.0933 675.591 34.56V211.52C655.991 211.52 646.191 203.68 646.191 188V79.64L654.031 58.08L651.511 57.24L592.991 203.12C591.871 205.547 590.191 207.507 587.951 209C585.711 210.68 583.284 211.52 580.671 211.52C577.871 211.52 575.351 210.773 573.111 209.28C570.871 207.787 569.191 205.733 568.071 203.12L509.271 56.96L506.751 58.08L514.871 79.36V188C514.871 195.653 512.351 201.533 507.311 205.64C502.271 209.56 494.898 211.52 485.191 211.52V34.28ZM712.964 27C712.964 22.8933 714.364 19.5333 717.164 16.92C720.151 14.3067 723.884 13 728.364 13H808.724C821.418 13 832.618 15.6133 842.324 20.84C852.218 25.88 859.871 33.16 865.284 42.68C870.698 52.0133 873.404 62.84 873.404 75.16C873.404 87.6667 870.698 98.68 865.284 108.2C860.058 117.72 852.498 125.093 842.604 130.32C832.898 135.36 821.604 137.88 808.724 137.88H743.204V187.72C743.204 195.373 740.591 201.253 735.364 205.36C730.138 209.467 722.671 211.52 712.964 211.52V27ZM808.724 111.56C819.551 111.56 828.044 108.387 834.204 102.04C840.364 95.5067 843.444 86.5467 843.444 75.16C843.444 64.1467 840.271 55.4667 833.924 49.12C827.764 42.5867 819.364 39.32 808.724 39.32H743.204V111.56H808.724ZM903.55 27C903.55 23.08 905.044 19.8133 908.03 17.2C911.017 14.4 914.657 13 918.95 13H1043.27C1043.27 21.96 1041.5 28.5867 1037.95 32.88C1034.59 36.9867 1029.27 39.04 1021.99 39.04H933.79V97H1010.79C1010.79 105.96 1009.11 112.587 1005.75 116.88C1002.39 120.987 997.07 123.04 989.79 123.04H933.79V182.96H1027.87C1034.96 182.96 1040.19 185.107 1043.55 189.4C1047.1 193.507 1048.87 200.04 1048.87 209H918.95C914.657 209 911.017 207.693 908.03 205.08C905.044 202.28 903.55 198.92 903.55 195V27Z" fill="black"/>
</svg>
