<svg width="87" height="107" viewBox="0 0 87 107" fill="none" xmlns="http://www.w3.org/2000/svg">
<path d="M55.1846 83.0396C50.4368 92.7754 36.5631 92.7754 31.8153 83.0396L14.9463 48.4481C10.735 39.8126 17.0232 29.75 26.631 29.75L60.369 29.75C69.9767 29.75 76.2649 39.8126 72.0536 48.4482L55.1846 83.0396Z" fill="#753636"/>
<path d="M76 32.5C76 50.4493 61.4493 65 43.5 65C25.5507 65 11 50.4493 11 32.5C11 14.5507 25.5507 0 43.5 0C61.4493 0 76 14.5507 76 32.5Z" fill="#753636"/>
<path d="M74 32.5C74 49.3447 60.3447 63 43.5 63C26.6553 63 13 49.3447 13 32.5C13 15.6553 26.6553 2 43.5 2C60.3447 2 74 15.6553 74 32.5Z" fill="#D77272"/>
<path d="M54.3701 80.7562C50.0573 89.9783 36.9427 89.9782 32.6299 80.7562L16.4151 46.0834C12.6942 38.1269 18.5015 29 27.2852 29L59.7148 29C68.4985 29 74.3058 38.1269 70.5849 46.0835L54.3701 80.7562Z" fill="#D77272"/>
<path d="M57 31C57 38.732 50.732 45 43 45C35.268 45 29 38.732 29 31C29 23.268 35.268 17 43 17C50.732 17 57 23.268 57 31Z" fill="#753636"/>
<path d="M55 31C55 37.6274 49.6274 43 43 43C36.3726 43 31 37.6274 31 31C31 24.3726 36.3726 19 43 19C49.6274 19 55 24.3726 55 31Z" fill="white"/>
</svg>
