<svg width="87" height="107" viewBox="0 0 87 107" fill="none" xmlns="http://www.w3.org/2000/svg">
<path d="M55.1846 83.0396C50.4368 92.7754 36.5632 92.7754 31.8154 83.0396L14.9463 48.4482C10.7351 39.8126 17.0233 29.75 26.631 29.75L60.369 29.75C69.9767 29.75 76.2649 39.8126 72.0537 48.4482L55.1846 83.0396Z" fill="#00599D"/>
<circle cx="43.5" cy="32.5" r="32.5" fill="#00599D"/>
<circle cx="43.5" cy="32.5" r="30.5" fill="#52B0FC"/>
<path d="M54.3701 80.7561C50.0573 89.9782 36.9427 89.9782 32.6299 80.7561L16.4151 46.0834C12.6942 38.1268 18.5015 29 27.2852 29L59.7148 29C68.4985 29 74.3058 38.1269 70.5849 46.0834L54.3701 80.7561Z" fill="#52B0FC"/>
<circle cx="43" cy="31" r="14" fill="#00599D"/>
<circle cx="43" cy="31" r="12" fill="white"/>
</svg>
